<svg xmlns="http://www.w3.org/2000/svg" xmlns:vectornator="http://vectornator.io" xml:space="preserve" stroke-miterlimit="10" style="fill-rule:nonzero;clip-rule:evenodd;stroke-linecap:round;stroke-linejoin:round" viewBox="0 0 60 60"><g vectornator:layerName="Untitled"><g vectornator:layerName="g" clip-path="url(#ArtboardFrame)"><path vectornator:layerName="path" fill="#93dbd0" d="M51.004 19.726c-.02.05-.02.1-.001.151.295.78.528 1.578.7 2.395.184.879.359 1.989.525 3.33.331 3.773-.197 7.39-1.584 10.851a4.054 4.054 0 0 1-.245.499 14.07 14.07 0 0 1-.078-1.294c-.06-2.012-1.442-4.559-2.78-6.022a9.802 9.802 0 0 0-7.21-3.225.064.064 0 0 0-.056.096c1.899 3.212 2.071 6.92.809 10.4-.893 2.465-2.432 4.393-4.618 5.783-1.714 1.09-3.546 1.75-5.495 1.98a18.99 18.99 0 0 1-8.31-.857 105.32 105.32 0 0 1-1.325-.51 13.5 13.5 0 0 0-1.35-.445 2.907 2.907 0 0 1-.443-.245 28.813 28.813 0 0 1-4.498-3.805 67.618 67.618 0 0 1-5.111-6.01A33.895 33.895 0 0 1 8.78 31.17a149.308 149.308 0 0 1-3.507-5.504c-.762-1.255-1.482-2.67-2.242-3.988-.06-.104-.036-.127.07-.07.058.032.134.09.227.174a22.969 22.969 0 0 0 4.55 3.229c.368.2 1.204.596 2.51 1.19-.03.138-.005.252.071.34 4.329 5.034 7.952 11.545 14.694 13.776 1.224.405 2.577.583 4.06.535 4.392-.145 8.147-2.7 9.726-6.794 2.196-5.693-1.065-11.653-6.884-13.203-.691-.184-1.568-.297-2.63-.341 1.087-2.693 2.815-5.015 5.34-6.465 3.482-1.956 7.308-2.115 10.9-.335 2.377 1.177 4.154 3.312 5.193 5.82a.664.664 0 0 0 .145.192Zm-4.683 1.07c.171-.91-.457-1.792-1.405-1.971-.947-.18-1.855.413-2.027 1.323-.172.91.457 1.792 1.405 1.97.947.18 1.855-.412 2.027-1.322Z"/><path vectornator:layerName="path" fill="#1c8e7d" d="M34.767 14.049c-2.526 1.45-4.254 3.772-5.342 6.465a4.74 4.74 0 0 0-.837.083c-3.26.583-5.342 2.619-7.65 4.867 0-.029-.02-.043-.057-.041a.16.16 0 0 0-.086.029c-.054.037-.102.046-.145.025-2.583-1.27-4.189-3.918-4.98-6.586-.026-.09-.009-.1.053-.029a3.79 3.79 0 0 0 1.144.879c1.912.982 4.197 1.397 6.289.933a2.394 2.394 0 0 0 1.176-.62c.323-.318.758-.78 1.303-1.386.918-1.02 1.824-1.817 2.717-2.393 1.124-.725 2.168-1.222 3.13-1.49.964-.267 1.952-.52 2.897-.846.246-.085.375-.048.388.11Z"/><path vectornator:layerName="path" fill="#fd706a" d="m51.004 19.726 5.973 2.924a.043.043 0 0 1 .003.075l-4.752 2.877c-.166-1.341-.341-2.451-.525-3.33a16.072 16.072 0 0 0-.7-2.395.202.202 0 0 1 0-.151Z"/><path vectornator:layerName="path" fill="#69c0a9" d="M29.425 20.514c1.063.044 1.94.157 2.63.34 5.82 1.551 9.08 7.511 6.885 13.204-1.58 4.093-5.334 6.649-9.726 6.794-1.483.048-2.836-.13-4.06-.535-6.742-2.231-10.365-8.742-14.694-13.776-.076-.088-.1-.202-.072-.34 2.703 1.091 5.957 1.844 8.746.602.647-.288 1.248-.733 1.804-1.338 2.308-2.25 4.39-4.285 7.65-4.868a4.74 4.74 0 0 1 .837-.083Z"/><path vectornator:layerName="path" fill="#fdfdfd" d="M50.4 36.952c-.065.238-.21.562-.433.97-1.307 2.38-3.02 4.34-5.139 5.878-4.745 3.444-10.382 4.491-16.089 3.18-3.145-.724-6.063-2.098-8.753-4.122a13.5 13.5 0 0 1 1.35.445c.832.323 1.274.493 1.325.51a18.99 18.99 0 0 0 8.31.858c1.95-.23 3.781-.89 5.495-1.98 2.186-1.391 3.725-3.319 4.618-5.783 1.262-3.481 1.09-7.189-.809-10.4a.064.064 0 0 1 .056-.097 9.802 9.802 0 0 1 7.21 3.225c1.338 1.463 2.72 4.01 2.78 6.022.018.615.044 1.046.078 1.294Z"/><path vectornator:layerName="Oval 1" fill="#24283a" d="M42.845 20.465c0-.93.79-1.684 1.767-1.684.976 0 1.767.754 1.767 1.684 0 .93-.791 1.685-1.767 1.685-.976 0-1.767-.754-1.767-1.684Z"/></g></g></svg>