<?xml version="1.0" encoding="UTF-8" standalone="no"?>
<!DOCTYPE svg PUBLIC "-//W3C//DTD SVG 1.1//EN" "http://www.w3.org/Graphics/SVG/1.1/DTD/svg11.dtd">
<!-- Created with Vectornator (http://vectornator.io/) -->
<svg height="100%" stroke-miterlimit="10" style="fill-rule:nonzero;clip-rule:evenodd;stroke-linecap:round;stroke-linejoin:round;" version="1.1" viewBox="0 0 60 60" width="100%" xml:space="preserve"
    xmlns="http://www.w3.org/2000/svg"
    xmlns:vectornator="http://vectornator.io"
    xmlns:xlink="http://www.w3.org/1999/xlink">
    <defs/>
    <clipPath id="ArtboardFrame">
        <rect height="60" width="60" x="0" y="0"/>
    </clipPath>
    <g clip-path="url(#ArtboardFrame)" id="Untitled" vectornator:layerName="Untitled">
        <path d="M10 0L50 0C55.5228 0 60 4.47715 60 10L60 50C60 55.5228 55.5228 60 50 60L10 60C4.47715 60 0 55.5228 0 50L0 10C0 4.47715 4.47715 0 10 0Z" fill="#fddf19" fill-rule="evenodd" opacity="1" stroke="#363636" stroke-linecap="round" stroke-linejoin="round" stroke-width="1.5"/>
        <path d="M31.2387 41.042C31.9105 41.4339 32.2744 41.9517 32.3304 42.5956C32.3584 43.0155 32.2324 43.3934 31.9525 43.7293C31.6726 44.0652 31.2947 44.2471 30.8188 44.2751C30.4829 44.3311 30.133 44.2751 29.7691 44.1072C27.3897 43.1554 25.2902 41.9657 23.4707 40.5381C23.4147 40.5661 23.3587 40.6081 23.3028 40.6641C22.8829 40.888 22.505 41.084 22.1691 41.2519C21.8331 41.4199 21.4972 41.5599 21.1613 41.6718C20.8254 41.7838 20.4755 41.8888 20.1116 41.9867C19.7477 42.0847 19.3278 42.1757 18.8519 42.2597C18.7959 42.2597 18.726 42.2667 18.642 42.2807C18.558 42.2947 18.474 42.3017 18.3901 42.3017C17.6622 42.3576 16.9064 42.3017 16.1227 42.1337C15.3389 41.9657 14.5831 41.7838 13.8552 41.5878C12.6796 41.2519 11.6578 40.7201 10.7901 39.9923C9.92228 39.2645 9.20147 38.4177 8.62762 37.4519C8.05378 36.4862 7.60589 35.4435 7.28398 34.3238C6.96206 33.2041 6.75912 32.0703 6.67514 30.9227C6.64715 30.5028 6.63315 30.0829 6.63315 29.663C6.63315 29.2431 6.63315 28.8372 6.63315 28.4453C6.68913 27.5215 6.85009 26.5138 7.11602 25.4221C7.38195 24.3304 7.74586 23.2597 8.20773 22.2099C8.66961 21.1602 9.20847 20.1735 9.82431 19.2497C10.4401 18.326 11.126 17.5702 11.8818 16.9823C12.8335 16.2545 13.8552 15.6737 14.947 15.2398C16.0387 14.8059 17.1584 14.547 18.3061 14.463C20.2376 14.295 22.0851 14.5959 23.8486 15.3657C25.6122 16.1355 27.0818 17.4162 28.2575 19.2077C28.8173 20.1035 29.2372 21.0413 29.5171 22.021C29.7971 23.0007 29.979 24.0085 30.063 25.0442C30.2029 26.3878 30.2029 27.7175 30.063 29.0331C29.811 30.5448 29.3632 32.1403 28.7193 33.8199C28.0755 35.4994 27.2077 36.9831 26.116 38.2707C26.8718 38.8306 27.6696 39.3344 28.5094 39.7823C29.3492 40.2302 30.2589 40.6501 31.2387 41.042ZM23.5127 35.9613C24.3805 34.9816 25.0523 33.8619 25.5282 32.6022C26.0041 31.3425 26.382 30.0689 26.6619 28.7812C26.6899 28.2214 26.7109 27.6545 26.7249 27.0807C26.7389 26.5068 26.7179 25.94 26.6619 25.3801C26.5779 24.5963 26.4379 23.8405 26.242 23.1127C26.046 22.3849 25.7521 21.6991 25.3602 21.0552C24.6044 19.8796 23.5687 19.0188 22.253 18.4729C20.9374 17.9271 19.5937 17.7101 18.2221 17.8221C17.4383 17.9061 16.6965 18.088 15.9967 18.368C15.2969 18.6479 14.653 19.0678 14.0652 19.6276C13.3094 20.2994 12.6656 21.0832 12.1337 21.979C11.6018 22.8748 11.168 23.8265 10.832 24.8343C10.4961 25.842 10.2652 26.8567 10.1392 27.8785C10.0133 28.9002 9.99227 29.8729 10.0762 30.7967C10.1602 31.9164 10.3982 32.9871 10.7901 34.0088C11.182 35.0306 11.7278 35.9123 12.4276 36.6541C13.1274 37.3959 13.9812 37.9698 14.989 38.3757C15.9967 38.7816 17.1584 38.9285 18.474 38.8166C18.8659 38.7606 19.2578 38.6836 19.6497 38.5856C20.0416 38.4877 20.4335 38.3407 20.8254 38.1448C20.2656 37.5849 19.7407 36.9901 19.2508 36.3602C18.761 35.7304 18.2781 35.0656 17.8022 34.3657C17.6902 34.1698 17.6133 33.9878 17.5713 33.8199C17.5293 33.6519 17.4803 33.484 17.4243 33.316C17.3963 32.8401 17.5223 32.4413 17.8022 32.1193C18.0821 31.7974 18.446 31.6085 18.8939 31.5525C19.5098 31.4965 20.0696 31.7624 20.5735 32.3503C21.0494 33.0221 21.5322 33.6589 22.0221 34.2608C22.512 34.8626 23.0088 35.4295 23.5127 35.9613Z" fill="#303030" fill-rule="evenodd" opacity="1" stroke="#303030" stroke-linecap="round" stroke-linejoin="round" stroke-width="0.5"/>
        <path d="M52.989 15.9326C53.4928 16.1006 53.8707 16.3525 54.1227 16.6884C54.3746 17.0243 54.4866 17.3742 54.4586 17.7381C54.4306 18.13 54.2766 18.4729 53.9967 18.7669C53.7168 19.0608 53.2969 19.2637 52.737 19.3757L46.1867 19.4177L46.2287 39.9083C46.2007 40.5521 46.0118 41.035 45.6619 41.3569C45.312 41.6788 44.9271 41.8398 44.5072 41.8398C44.1153 41.8398 43.7514 41.6928 43.4155 41.3989C43.0796 41.105 42.8696 40.6501 42.7856 40.0343L42.7436 19.4177L36.1094 19.4177C35.5215 19.3057 35.0807 19.0748 34.7867 18.7249C34.4928 18.375 34.3599 18.0041 34.3878 17.6122C34.4158 17.1923 34.5908 16.8144 34.9127 16.4785C35.2346 16.1425 35.7175 15.9746 36.3613 15.9746C36.6972 15.9746 37.2921 15.9746 38.1459 15.9746C38.9996 15.9746 39.9864 15.9746 41.1061 15.9746C42.2258 15.9746 43.4155 15.9746 44.6751 15.9746C45.9348 15.9746 47.1245 15.9746 48.2442 15.9746C49.3639 15.9746 50.3506 15.9676 51.2044 15.9536C52.0582 15.9396 52.653 15.9326 52.989 15.9326Z" fill="#303030" fill-rule="evenodd" opacity="1" stroke="#303030" stroke-linecap="round" stroke-linejoin="round" stroke-width="0.5"/>
    </g>
</svg>
