<svg xmlns="http://www.w3.org/2000/svg" viewBox="0 0 280.028 280.028"><path d="M39.379 70.007v192.519c0 9.661 7.841 17.502 17.502 17.502h166.266c9.661 0 17.502-7.841 17.502-17.502V70.007H39.379zM100.635 0h78.758c9.661 0 17.502 7.841 17.502 17.502v17.502h-17.502v-8.751a8.75 8.75 0 00-8.751-8.751h-61.256a8.748 8.748 0 00-8.751 8.751v8.751H83.133V17.502C83.133 7.841 90.974 0 100.635 0z" fill="#ccd0d2"/><path d="M74.382 240.648c0 7.254 5.881 13.126 13.126 13.126 7.246 0 13.126-5.872 13.126-13.126V113.49H74.382v127.158zM179.393 113.49v127.159c0 7.246 5.881 13.126 13.126 13.126 7.246 0 13.126-5.881 13.126-13.126V113.49h-26.252zm-52.506 127.158c0 7.246 5.881 13.126 13.126 13.126 7.246 0 13.126-5.881 13.126-13.126V113.49h-26.253l.001 127.158zM39.379 78.758h201.27V96.26H39.379V78.758z" fill="#aeb1b3"/><path d="M39.379 35.003h201.27c9.661 0 17.502 7.841 17.502 17.502v26.253H21.877V52.505c0-9.661 7.841-17.502 17.502-17.502z" fill="#d1d5d7"/></svg>