<svg xmlns="http://www.w3.org/2000/svg" viewBox="0 0 122.88 96.32"><path d="M104.54 23.28c6.82 6.28 12.8 14.02 17.67 22.87l.67 1.22-.67 1.21c-6.88 12.49-15.96 22.77-26.48 29.86-8.84 5.95-18.69 9.67-29.15 10.59l6.73-11.66c5.25-1.42 10.24-3.76 14.89-6.9 8.18-5.51 15.29-13.45 20.79-23.1-2.98-5.22-6.43-9.94-10.26-14.05l5.81-10.04zM88.02 0l17.84 10.3L56.2 96.32l-17.83-10.3.69-1.2a66.327 66.327 0 01-11.9-6.38C16.62 71.35 7.55 61.07.67 48.59L0 47.37l.67-1.22C7.55 33.67 16.62 23.39 27.15 16.3 37.42 9.38 49.08 5.48 61.44 5.48c7.35 0 14.44 1.38 21.14 3.94L88.02 0zM44.36 75.63l5-8.67c-5.94-3.78-9.89-10.42-9.89-17.99 0-11.77 9.54-21.31 21.31-21.31 3.56 0 6.92.87 9.87 2.42l6.61-11.44c-5.04-1.85-10.35-2.85-15.83-2.85-9.61 0-18.71 3.06-26.76 8.48-8.18 5.51-15.29 13.45-20.8 23.11 5.5 9.66 12.62 17.6 20.8 23.1 3.09 2.07 6.33 3.8 9.69 5.15zm19.57-33.89l6.73-11.66c-1.82-.95-3.77-1.64-5.79-2.03a13.814 13.814 0 00-2.31 7.67c0 2.16.5 4.21 1.37 6.02z"/></svg>