<?xml version="1.0" encoding="UTF-8" standalone="no"?>
<!DOCTYPE svg PUBLIC "-//W3C//DTD SVG 1.1//EN" "http://www.w3.org/Graphics/SVG/1.1/DTD/svg11.dtd">
<svg height="100%" stroke-miterlimit="10" style="fill-rule:nonzero;clip-rule:evenodd;stroke-linecap:round;stroke-linejoin:round;" version="1.1" viewBox="0 0 1400 400" width="100%" xml:space="preserve"
  xmlns="http://www.w3.org/2000/svg"
  xmlns:xlink="http://www.w3.org/1999/xlink">
  <defs/>
  <g id="Ohne-Titel">
    <g opacity="1">
      <path d="M621.58 96.9654C621.38 97.4654 621.377 97.9721 621.57 98.4854C624.53 106.299 626.87 114.302 628.59 122.495C630.437 131.309 632.193 142.442 633.86 155.895C637.18 193.735 631.883 230.009 617.97 264.715C617.343 266.282 616.527 267.949 615.52 269.715C615.173 267.235 614.91 262.912 614.73 256.745C614.13 236.565 600.27 211.025 586.86 196.345C568.15 175.865 542.36 164.215 514.55 164.005C514.317 164.001 514.101 164.124 513.984 164.325C513.868 164.527 513.87 164.776 513.99 164.975C533.03 197.185 534.76 234.365 522.1 269.275C513.147 293.989 497.71 313.319 475.79 327.265C458.603 338.199 440.233 344.819 420.68 347.125C392.413 350.459 364.637 347.592 337.35 338.525C336.83 338.352 332.4 336.645 324.06 333.405C319.68 331.699 315.167 330.212 310.52 328.945C308.82 328.172 307.34 327.352 306.08 326.485C289.42 315.039 274.383 302.322 260.97 288.335C243.05 269.642 225.963 249.552 209.71 228.065C205.93 223.065 202.077 217.622 198.15 211.735C186.023 193.589 174.3 175.189 162.98 156.535C155.34 143.955 148.12 129.765 140.5 116.545C139.9 115.499 140.13 115.265 141.19 115.845C141.777 116.159 142.537 116.739 143.47 117.585C157.363 130.232 172.573 141.025 189.1 149.965C192.793 151.965 201.183 155.942 214.27 161.895C213.983 163.289 214.223 164.429 214.99 165.315C258.4 215.795 294.73 281.085 362.35 303.465C374.623 307.525 388.193 309.312 403.06 308.825C447.11 307.375 484.76 281.745 500.6 240.695C522.62 183.605 489.92 123.835 431.56 108.285C424.633 106.445 415.84 105.305 405.18 104.865C416.09 77.8654 433.42 54.5754 458.75 40.0354C493.66 20.4154 532.03 18.8254 568.06 36.6754C591.89 48.4754 609.71 69.8854 620.13 95.0454C620.41 95.7254 621.07 96.4654 621.58 96.9654ZM574.616 107.696C576.339 98.5739 570.034 89.7232 560.531 87.9277C551.029 86.1322 541.928 92.0719 540.205 101.194C538.481 110.317 544.787 119.168 554.289 120.963C563.791 122.759 572.892 116.819 574.616 107.696Z" fill="#93dbd0" fill-rule="nonzero" opacity="1" stroke="none"/>
      <path d="M458.75 40.0354C433.42 54.5754 416.09 77.8654 405.18 104.865C402.74 104.859 399.943 105.139 396.79 105.705C364.09 111.545 343.21 131.965 320.07 154.515C320.057 154.222 319.863 154.082 319.49 154.095C319.177 154.109 318.89 154.205 318.63 154.385C318.09 154.765 317.607 154.852 317.18 154.645C291.27 141.905 275.17 115.345 267.24 88.5954C266.973 87.6887 267.15 87.5921 267.77 88.3054C270.843 91.8321 274.667 94.7687 279.24 97.1154C298.41 106.965 321.33 111.125 342.31 106.475C346.61 105.515 350.77 103.555 354.1 100.265C357.347 97.0654 361.703 92.4287 367.17 86.3554C376.377 76.1354 385.46 68.1354 394.42 62.3554C405.693 55.0821 416.157 50.1054 425.81 47.4254C435.47 44.7354 445.38 42.1954 454.86 38.9354C457.327 38.0821 458.623 38.4487 458.75 40.0354Z" fill="#1c8e7d" fill-rule="nonzero" opacity="1" stroke="none"/>
      <path d="M621.58 96.9654L681.48 126.285C681.619 126.356 681.709 126.496 681.715 126.652C681.721 126.807 681.643 126.954 681.51 127.035L633.86 155.895C632.193 142.442 630.437 131.309 628.59 122.495C626.87 114.302 624.53 106.299 621.57 98.4854C621.377 97.9721 621.38 97.4654 621.58 96.9654Z" fill="#fd706a" fill-rule="nonzero" opacity="1" stroke="none"/>
      <path d="M405.18 104.865C415.84 105.305 424.633 106.445 431.56 108.285C489.92 123.835 522.62 183.605 500.6 240.695C484.76 281.745 447.11 307.375 403.06 308.825C388.193 309.312 374.623 307.525 362.35 303.465C294.73 281.085 258.4 215.795 214.99 165.315C214.223 164.429 213.983 163.289 214.27 161.895C241.37 172.845 274 180.395 301.98 167.935C308.46 165.055 314.49 160.582 320.07 154.515C343.21 131.965 364.09 111.545 396.79 105.705C399.943 105.139 402.74 104.859 405.18 104.865Z" fill="#69c0a9" fill-rule="nonzero" opacity="1" stroke="none"/>
      <path d="M615.52 269.715C614.873 272.109 613.427 275.352 611.18 279.445C598.08 303.319 580.903 322.969 559.65 338.395C512.06 372.935 455.53 383.435 398.3 370.275C366.76 363.022 337.5 349.245 310.52 328.945C315.167 330.212 319.68 331.699 324.06 333.405C332.4 336.645 336.83 338.352 337.35 338.525C364.637 347.592 392.413 350.459 420.68 347.125C440.233 344.819 458.603 338.199 475.79 327.265C497.71 313.319 513.147 293.989 522.1 269.275C534.76 234.365 533.03 197.185 513.99 164.975C513.87 164.776 513.868 164.527 513.984 164.325C514.101 164.124 514.317 164.001 514.55 164.005C542.36 164.215 568.15 175.865 586.86 196.345C600.27 211.025 614.13 236.565 614.73 256.745C614.91 262.912 615.173 267.235 615.52 269.715Z" fill="#fdfdfd" fill-rule="nonzero" opacity="1" stroke="none"/>
      <path d="M539.759 104.383C539.759 95.0528 547.693 87.4892 557.48 87.4892C567.267 87.4892 575.201 95.0528 575.201 104.383C575.201 113.713 567.267 121.277 557.48 121.277C547.693 121.277 539.759 113.713 539.759 104.383Z" fill="#24283a" fill-rule="nonzero" opacity="1" stroke="none"/>
      <path d="M878.109 116.824C878.109 130.909 876.615 142.714 873.627 152.241C870.639 161.767 866.256 168.741 860.476 173.163L877.717 205.346L858.272 205.346L845.145 178.486L844.019 178.486C833.047 178.486 824.623 173.163 818.745 162.518C812.867 151.872 809.929 136.586 809.929 116.66C809.929 96.7335 812.876 81.5157 818.77 71.0066C824.663 60.4975 833.112 55.2429 844.117 55.2429C855.121 55.2429 863.537 60.5384 869.366 71.1294C875.194 81.7204 878.109 96.9518 878.109 116.824ZM825.847 116.824C825.847 130.199 827.366 140.271 830.402 147.041C833.439 153.81 837.978 157.195 844.019 157.195C856.133 157.195 862.19 143.738 862.19 116.824C862.19 89.8548 856.166 76.3703 844.117 76.3703C838.076 76.3703 833.521 79.7687 830.451 86.5656C827.382 93.3624 825.847 103.448 825.847 116.824Z" fill="#93dbd0" fill-rule="nonzero" opacity="1" stroke="#24283a" stroke-linecap="butt" stroke-linejoin="round" stroke-opacity="0" stroke-width="2"/>
      <path d="M954.022 57.1264L954.022 134.594C954.022 143.438 952.838 151.19 950.471 157.85C948.104 164.51 944.683 169.615 940.21 173.163C935.736 176.712 930.446 178.486 924.34 178.486C915.132 178.486 907.981 174.542 902.887 166.653C897.793 158.765 895.246 147.969 895.246 134.266L895.246 57.1264L910.381 57.1264L910.381 130.417C910.381 139.643 911.491 146.413 913.712 150.726C915.932 155.039 919.605 157.195 924.732 157.195C929.695 157.195 933.295 155.025 935.532 150.685C937.769 146.345 938.887 139.534 938.887 130.253L938.887 57.1264L954.022 57.1264Z" fill="#93dbd0" fill-rule="nonzero" opacity="1" stroke="#24283a" stroke-linecap="butt" stroke-linejoin="round" stroke-opacity="0" stroke-width="2"/>
      <path d="M974.343 176.848L974.343 57.1264L989.527 57.1264L989.527 176.848L974.343 176.848Z" fill="#93dbd0" fill-rule="nonzero" opacity="1" stroke="#24283a" stroke-linecap="butt" stroke-linejoin="round" stroke-opacity="0" stroke-width="2"/>
      <path d="M1040.75 76.5341C1035.04 76.5341 1030.62 80.1236 1027.48 87.3026C1024.35 94.4815 1022.78 104.486 1022.78 117.315C1022.78 144.011 1028.77 157.359 1040.75 157.359C1045.78 157.359 1051.87 155.257 1059.02 151.053L1059.02 172.345C1053.15 176.439 1046.58 178.486 1039.33 178.486C1028.92 178.486 1020.95 173.204 1015.43 162.641C1009.91 152.077 1007.15 136.914 1007.15 117.151C1007.15 104.704 1008.51 93.7991 1011.22 84.4364C1013.93 75.0738 1017.82 67.8948 1022.9 62.8996C1027.98 57.9043 1033.93 55.4067 1040.75 55.4067C1047.71 55.4067 1054.7 58.2182 1061.72 63.8413L1056.82 84.4774C1054.14 82.3483 1051.45 80.4921 1048.74 78.9089C1046.03 77.3257 1043.37 76.5341 1040.75 76.5341Z" fill="#93dbd0" fill-rule="nonzero" opacity="1" stroke="#24283a" stroke-linecap="butt" stroke-linejoin="round" stroke-opacity="0" stroke-width="2"/>
      <path d="M1134.64 176.848L1117.4 176.848L1098.64 126.405L1092.23 134.102L1092.23 176.848L1077.04 176.848L1077.04 57.1264L1092.23 57.1264L1092.23 111.91L1098.2 97.8253L1117.6 57.1264L1134.45 57.1264L1109.47 110.109L1134.64 176.848Z" fill="#93dbd0" fill-rule="nonzero" opacity="1" stroke="#24283a" stroke-linecap="butt" stroke-linejoin="round" stroke-opacity="0" stroke-width="2"/>
      <path d="M709.629 343.119L694.445 343.119L694.445 244.525L675 244.525L675 223.397L729.074 223.397L729.074 244.525L709.629 244.525L709.629 343.119Z" fill="#93dbd0" fill-rule="nonzero" opacity="1" stroke="#24283a" stroke-linecap="butt" stroke-linejoin="round" stroke-opacity="0" stroke-width="2"/>
      <path d="M758.064 276.543L762.962 276.543C767.762 276.543 771.305 275.206 773.591 272.531C775.877 269.856 777.02 265.652 777.02 259.92C777.02 254.242 775.852 250.202 773.518 247.8C771.183 245.398 767.567 244.197 762.669 244.197L758.064 244.197L758.064 276.543ZM758.064 297.179L758.064 343.119L742.881 343.119L742.881 223.397L763.746 223.397C773.477 223.397 780.677 226.359 785.346 232.282C790.016 238.206 792.35 247.2 792.35 259.265C792.35 266.307 791.191 272.572 788.873 278.058C786.554 283.545 783.273 287.844 779.028 290.956C789.803 317.87 796.824 335.258 800.089 343.119L783.24 343.119L766.146 297.179L758.064 297.179Z" fill="#93dbd0" fill-rule="nonzero" opacity="1" stroke="#24283a" stroke-linecap="butt" stroke-linejoin="round" stroke-opacity="0" stroke-width="2"/>
      <path d="M855.725 343.119L850.533 314.622L824.427 314.622L819.235 343.119L802.876 343.119L828.149 222.906L846.713 222.906L872.084 343.119L855.725 343.119ZM846.908 293.331C842.108 267.508 839.406 252.905 838.802 249.52C838.198 246.135 837.766 243.46 837.504 241.495C836.427 248.483 833.341 265.761 828.247 293.331L846.908 293.331Z" fill="#93dbd0" fill-rule="nonzero" opacity="1" stroke="#24283a" stroke-linecap="butt" stroke-linejoin="round" stroke-opacity="0" stroke-width="2"/>
      <path d="M947.41 343.119L928.112 343.119L896.96 252.55L896.52 252.55C897.14 268.545 897.45 279.955 897.45 286.779L897.45 343.119L883.883 343.119L883.883 223.397L903.034 223.397L934.136 313.066L934.479 313.066C933.989 297.507 933.744 286.507 933.744 280.065L933.744 223.397L947.41 223.397L947.41 343.119Z" fill="#93dbd0" fill-rule="nonzero" opacity="1" stroke="#24283a" stroke-linecap="butt" stroke-linejoin="round" stroke-opacity="0" stroke-width="2"/>
      <path d="M1010.49 309.872C1010.49 320.682 1008.16 329.198 1003.51 335.422C998.858 341.645 992.384 344.757 984.09 344.757C976.449 344.757 969.69 342.355 963.813 337.551L963.813 313.967C968.645 317.57 972.735 320.108 976.082 321.582C979.429 323.056 982.49 323.793 985.266 323.793C988.596 323.793 991.151 322.729 992.931 320.6C994.711 318.471 995.6 315.304 995.6 311.101C995.6 308.753 995.209 306.665 994.425 304.836C993.641 303.007 992.49 301.247 990.972 299.554C989.454 297.862 986.36 295.159 981.69 291.447C977.315 288.008 974.033 284.705 971.845 281.539C969.657 278.372 967.911 274.687 966.604 270.484C965.298 266.28 964.645 261.367 964.645 255.743C964.645 245.152 966.792 236.827 971.086 230.767C975.38 224.707 981.315 221.678 988.89 221.678C992.613 221.678 996.164 222.415 999.543 223.889C1002.92 225.363 1006.46 227.437 1010.15 230.112L1005.25 249.847C1001.43 247.227 998.27 245.398 995.772 244.361C993.274 243.324 990.817 242.805 988.4 242.805C985.527 242.805 983.323 243.924 981.788 246.162C980.253 248.401 979.486 251.321 979.486 254.925C979.486 257.163 979.796 259.115 980.417 260.78C981.037 262.445 982.025 264.055 983.38 265.611C984.735 267.167 987.943 269.965 993.005 274.005C999.698 279.355 1004.29 284.719 1006.77 290.096C1009.25 295.473 1010.49 302.065 1010.49 309.872Z" fill="#93dbd0" fill-rule="nonzero" opacity="1" stroke="#24283a" stroke-linecap="butt" stroke-linejoin="round" stroke-opacity="0" stroke-width="2"/>
      <path d="M1026.26 343.119L1026.26 223.397L1041.44 223.397L1041.44 322.156L1070.49 322.156L1070.49 343.119L1026.26 343.119Z" fill="#93dbd0" fill-rule="nonzero" opacity="1" stroke="#24283a" stroke-linecap="butt" stroke-linejoin="round" stroke-opacity="0" stroke-width="2"/>
      <path d="M1129.55 343.119L1124.36 314.622L1098.25 314.622L1093.06 343.119L1076.7 343.119L1101.97 222.906L1120.54 222.906L1145.91 343.119L1129.55 343.119ZM1120.73 293.331C1115.93 267.508 1113.23 252.905 1112.63 249.52C1112.02 246.135 1111.59 243.46 1111.33 241.495C1110.25 248.483 1107.17 265.761 1102.07 293.331L1120.73 293.331Z" fill="#93dbd0" fill-rule="nonzero" opacity="1" stroke="#24283a" stroke-linecap="butt" stroke-linejoin="round" stroke-opacity="0" stroke-width="2"/>
      <path d="M1185.33 343.119L1170.15 343.119L1170.15 244.525L1150.7 244.525L1150.7 223.397L1204.78 223.397L1204.78 244.525L1185.33 244.525L1185.33 343.119Z" fill="#93dbd0" fill-rule="nonzero" opacity="1" stroke="#24283a" stroke-linecap="butt" stroke-linejoin="round" stroke-opacity="0" stroke-width="2"/>
      <path d="M1259.83 343.119L1218.58 343.119L1218.58 223.397L1259.83 223.397L1259.83 244.197L1233.77 244.197L1233.77 270.484L1258.01 270.484L1258.01 291.283L1233.77 291.283L1233.77 322.156L1259.83 322.156L1259.83 343.119Z" fill="#93dbd0" fill-rule="nonzero" opacity="1" stroke="#24283a" stroke-linecap="butt" stroke-linejoin="round" stroke-opacity="0" stroke-width="2"/>
    </g>
  </g>
</svg>
